<mxfile host="app.diagrams.net" modified="2024-07-09T07:29:35.532Z" agent="Mozilla/5.0 (Windows NT 10.0; Win64; x64) AppleWebKit/537.36 (KHTML, like Gecko) Chrome/125.0.0.0 Safari/537.36" version="24.6.4" etag="8f6yF7siAnn6Cu7L6eEk" type="github">
  <diagram name="Trang-1" id="HaFpUlJzzIlwU--8GjBy">
    <mxGraphModel>
      <root>
        <mxCell id="0" />
        <mxCell id="1" parent="0" />
      </root>
    </mxGraphModel>
  </diagram>
</mxfile>
